# xmcd
#
# Track frame offsets: 
#        182
#        17877
#        40072
#        54267
#        81655
#        93282
#
# Disc length: 1417 seconds
#
# Revision: 2
# Processed by: cddbd v1.5.2PL0 Copyright (c) Steve Scherf et al.
# Submitted via: ExactAudioCopy v0.99pb5
#
DISCID=42058706
DTITLE=Vanessa Williams - Work To Do Maxi Single
DYEAR=1992
DGENRE=R&B
TTITLE0=Radio Mix w/Rap - Featuring Black Sheep
TTITLE1=Super Dope Remix w/Rap - Featuring Black Sheep
TTITLE2=Ken Lou Radio Mix
TTITLE3=Choice Club
TTITLE4=Choice Dub
TTITLE5=5-Oh Beats w/Rap - Featuring Black Sheep
EXTD=Info Provided By Derek Douglas, Memphis TN\nSend Email To: DougDo
EXTD=ug@ix.netcom.com
EXTT0=
EXTT1=
EXTT2=
EXTT3=
EXTT4=
EXTT5=
PLAYORDER=
